<svg xmlns="http://www.w3.org/2000/svg"  viewBox="0 0 987.004 987.004">
  <g id="Gruppe_9" data-name="Gruppe 9" transform="translate(-3965 -5233.21)">
    <g id="Gruppe_3" data-name="Gruppe 3" transform="translate(4504 6645.214)">
      <path id="Differenzmenge_1" data-name="Differenzmenge 1" d="M631.5,1091a501.281,501.281,0,0,1-50.432-2.545,494.788,494.788,0,0,1-49.026-7.481c-15.9-3.254-31.811-7.345-47.294-12.161-15.311-4.762-30.566-10.346-45.341-16.6-14.641-6.193-29.155-13.184-43.139-20.781-13.886-7.543-27.576-15.86-40.689-24.719-13.049-8.815-25.831-18.374-37.991-28.409-12.13-10.01-23.921-20.727-35.045-31.851s-21.842-22.917-31.851-35.046c-10.035-12.159-19.593-24.941-28.41-37.991-8.859-13.113-17.176-26.8-24.719-40.689-7.6-13.986-14.589-28.5-20.781-43.139-6.25-14.776-11.833-30.03-16.6-45.341-4.816-15.482-8.907-31.4-12.161-47.294a494.741,494.741,0,0,1-7.478-49,500.906,500.906,0,0,1,0-100.915,494.748,494.748,0,0,1,7.478-49c3.253-15.9,7.345-31.811,12.161-47.294,4.762-15.31,10.345-30.565,16.6-45.341,6.192-14.64,13.184-29.154,20.781-43.139,7.543-13.886,15.86-27.576,24.719-40.689,8.816-13.05,18.375-25.832,28.41-37.991,10.01-12.13,20.727-23.92,31.851-35.045s22.916-21.841,35.045-31.851c12.16-10.035,24.942-19.593,37.991-28.41,13.113-8.859,26.8-17.176,40.689-24.719,13.985-7.6,28.5-14.589,43.139-20.781,14.776-6.25,30.03-11.833,45.341-16.6,15.483-4.816,31.395-8.907,47.294-12.161a494.765,494.765,0,0,1,49-7.478,500.9,500.9,0,0,1,100.915,0,494.746,494.746,0,0,1,49,7.478c15.9,3.254,31.811,7.345,47.294,12.161,15.311,4.762,30.566,10.345,45.341,16.6,14.64,6.192,29.154,13.184,43.139,20.781,13.886,7.543,27.576,15.86,40.689,24.719,13.05,8.817,25.833,18.375,37.991,28.41,12.13,10.01,23.92,20.726,35.045,31.851s21.841,22.916,31.851,35.045c10.035,12.16,19.593,24.942,28.41,37.991,8.859,13.112,17.175,26.8,24.719,40.689,7.6,13.985,14.589,28.5,20.781,43.139,6.25,14.775,11.833,30.03,16.6,45.341,4.815,15.482,8.907,31.394,12.161,47.294a494.777,494.777,0,0,1,7.478,49,500.9,500.9,0,0,1,0,100.915,494.779,494.779,0,0,1-7.478,49c-3.254,15.9-7.345,31.813-12.161,47.294-4.762,15.311-10.346,30.566-16.6,45.341-6.192,14.639-13.184,29.154-20.781,43.139-7.544,13.888-15.861,27.577-24.719,40.689-8.817,13.05-18.375,25.832-28.41,37.991-10.01,12.129-20.726,23.92-31.851,35.046S957.54,968.294,945.411,978.3c-12.16,10.035-24.942,19.594-37.991,28.409-13.113,8.859-26.8,17.176-40.689,24.719-13.984,7.6-28.5,14.589-43.139,20.781-14.774,6.249-30.029,11.833-45.341,16.6-15.483,4.816-31.4,8.907-47.294,12.161a494.81,494.81,0,0,1-49,7.478A501.421,501.421,0,0,1,631.5,1091Zm0-969a483.052,483.052,0,0,0-48.589,2.452,476.691,476.691,0,0,0-47.241,7.209c-15.32,3.135-30.652,7.077-45.569,11.717-14.752,4.588-29.45,9.968-43.687,15.99-14.105,5.966-28.09,12.7-41.565,20.023-13.38,7.269-26.571,15.282-39.2,23.818A478.127,478.127,0,0,0,237.208,331.644c-8.536,12.635-16.55,25.826-23.818,39.205-7.32,13.476-14.057,27.46-20.023,41.565-6.021,14.236-11.4,28.934-15.99,43.687-4.64,14.918-8.582,30.249-11.717,45.569a476.669,476.669,0,0,0-7.2,47.213,482.618,482.618,0,0,0,0,97.234,476.649,476.649,0,0,0,7.205,47.213c3.135,15.32,7.077,30.652,11.717,45.569,4.588,14.752,9.968,29.45,15.99,43.687,5.966,14.1,12.7,28.089,20.023,41.565,7.268,13.379,15.281,26.57,23.818,39.205A478.133,478.133,0,0,0,365.643,991.793c12.636,8.536,25.826,16.55,39.2,23.818,13.476,7.32,27.46,14.057,41.565,20.023,14.237,6.021,28.935,11.4,43.687,15.99,14.919,4.64,30.25,8.582,45.569,11.717a476.689,476.689,0,0,0,47.213,7.2,482.6,482.6,0,0,0,97.234,0,476.687,476.687,0,0,0,47.213-7.2c15.319-3.135,30.651-7.077,45.569-11.717,14.752-4.589,29.451-9.968,43.687-15.99,14.1-5.966,28.09-12.7,41.565-20.023,13.379-7.268,26.569-15.281,39.205-23.818A478.134,478.134,0,0,0,1025.79,863.357c8.536-12.635,16.549-25.825,23.818-39.205,7.32-13.475,14.057-27.46,20.023-41.565,6.022-14.237,11.4-28.935,15.99-43.687,4.64-14.918,8.582-30.25,11.717-45.569a476.723,476.723,0,0,0,7.206-47.213,482.618,482.618,0,0,0,0-97.234,476.655,476.655,0,0,0-7.206-47.213c-3.135-15.319-7.077-30.651-11.717-45.569-4.589-14.753-9.968-29.451-15.99-43.687-5.966-14.106-12.7-28.09-20.023-41.565-7.269-13.38-15.282-26.571-23.818-39.2A478.128,478.128,0,0,0,897.357,203.208c-12.635-8.536-25.825-16.549-39.205-23.818-13.476-7.32-27.46-14.057-41.565-20.023-14.236-6.021-28.935-11.4-43.687-15.99-14.918-4.64-30.25-8.582-45.569-11.717a476.71,476.71,0,0,0-47.213-7.206A483.165,483.165,0,0,0,631.5,122Z" transform="translate(-677 -1516)" fill="#ffaa1e" opacity="0.995"/>
    </g>
    <g id="Gruppe_8" data-name="Gruppe 8" transform="translate(2057.578 90.594)">
      <path id="Differenzmenge_2" data-name="Differenzmenge 2" d="M137.891,210.98a650.52,650.52,0,0,1-74.613-7.629C42.363,200.02,21.073,195.663,0,190.4V0H276.881V178.566c-19.053,3.17-39.446,7.227-60.613,12.058-24.9,5.684-51.272,12.533-78.377,20.356h0Z" transform="translate(2269.06 5518.994)" fill="#f4ad44"/>
      <path id="Form_2" data-name="Form 2" d="M214.644,343.542c90.175,17.092,438.455,0,438.455,0S454.616,83.113,440.49,103.885c-38.011,14.534-185.7,188.145-228.02,231.028C211.709,335.675,204.438,343.542,214.644,343.542Z" transform="translate(1969.75 5241.294)" fill="#f4ad44"/>
      <path id="Form_1" data-name="Form 1" d="M271.548,667.463l9.018,160.094c44.746-17.39,91.487-33.315,166.5-89.889,80,59.863,123.9,86.175,170.836,108.213l7.433-175.846s-57.295-2.07-179.5,33.2C350.491,699.223,271.548,667.463,271.548,667.463Z" transform="translate(1959.058 5082.357)" fill="#f4ad44"/>
    </g>
  </g>
</svg>
