<svg xmlns="http://www.w3.org/2000/svg" width="13"  viewBox="0 0 453.002 619.003">
  <g id="Gruppe_1" data-name="Gruppe 1" transform="translate(-273.998 -190.997)">
    <rect id="Abgerundetes_Rechteck_1" data-name="Abgerundetes Rechteck 1" width="282.59" height="152.36" rx="10" transform="translate(362.79 429.11)" fill="#ffaa1e"/>
    <path id="Form_2" data-name="Form 2" d="M279.5,436.8c92.035,17.444,447.5,0,447.5,0S524.424,171,510.007,192.2c-38.795,14.834-189.525,192.025-232.722,235.793C276.508,428.772,269.087,436.8,279.5,436.8Z" fill="#ffaa1e"/>
    <path id="Form_1" data-name="Form 1" d="M322.53,630.958l8.343,163c41.107-34.564,92.514-35.777,167.79-92.55C578.942,761.48,644.638,764.359,670.1,810l7.459-176.462s-57.5-2.077-180.128,33.318C401.749,662.83,322.53,630.958,322.53,630.958Z" fill="#ffaa1e"/>
  </g>
</svg>
