<svg xmlns="http://www.w3.org/2000/svg"  viewBox="0 0 987 987">
  <g id="Gruppe_3" data-name="Gruppe 3" transform="translate(539 1412)">
    <g id="Gruppe_1" data-name="Gruppe 1" transform="translate(-545.998 -1418.997)">
      <rect id="Abgerundetes_Rechteck_1" data-name="Abgerundetes Rechteck 1" width="282.59" height="152.36" rx="10" transform="translate(362.79 429.11)" fill="#ffaa1e"/>
      <path id="Form_2" data-name="Form 2" d="M279.5,436.8c92.035,17.444,447.5,0,447.5,0S524.424,171,510.007,192.2c-38.795,14.834-189.525,192.025-232.722,235.793C276.508,428.772,269.087,436.8,279.5,436.8Z" fill="#ffaa1e"/>
      <path id="Form_1" data-name="Form 1" d="M322.53,630.958l8.343,163c41.107-34.564,92.514-35.777,167.79-92.55C578.942,761.48,644.638,764.359,670.1,810l7.459-176.462s-57.5-2.077-180.128,33.318C401.749,662.83,322.53,630.958,322.53,630.958Z" fill="#ffaa1e"/>
    </g>
    <path id="Differenzmenge_1" data-name="Differenzmenge 1" d="M631.5,1091a501.42,501.42,0,0,1-50.458-2.548,494.793,494.793,0,0,1-49-7.478c-15.9-3.254-31.811-7.345-47.294-12.161-15.311-4.762-30.566-10.346-45.341-16.6-14.641-6.193-29.155-13.184-43.139-20.781-13.886-7.543-27.576-15.86-40.689-24.719-13.049-8.815-25.831-18.374-37.991-28.409-12.13-10.01-23.921-20.727-35.045-31.851s-21.842-22.917-31.851-35.046c-10.035-12.159-19.593-24.941-28.41-37.991-8.859-13.113-17.176-26.8-24.719-40.689-7.6-13.986-14.589-28.5-20.781-43.139-6.25-14.776-11.833-30.03-16.595-45.341-4.816-15.482-8.907-31.395-12.161-47.294a494.742,494.742,0,0,1-7.478-49,500.9,500.9,0,0,1,0-100.915,494.75,494.75,0,0,1,7.478-49c3.253-15.9,7.345-31.811,12.161-47.294,4.762-15.31,10.345-30.565,16.595-45.341,6.192-14.64,13.184-29.154,20.781-43.139,7.543-13.886,15.86-27.576,24.719-40.689,8.816-13.05,18.375-25.832,28.41-37.991,10.01-12.13,20.727-23.92,31.851-35.045s22.916-21.841,35.045-31.851c12.16-10.035,24.942-19.593,37.991-28.41,13.113-8.859,26.8-17.176,40.689-24.719,13.985-7.6,28.5-14.589,43.139-20.781,14.776-6.25,30.03-11.833,45.341-16.595,15.483-4.816,31.395-8.907,47.294-12.161a494.756,494.756,0,0,1,49-7.478,500.9,500.9,0,0,1,100.915,0,494.767,494.767,0,0,1,49,7.478c15.9,3.254,31.811,7.345,47.294,12.161,15.311,4.762,30.566,10.345,45.341,16.595,14.64,6.192,29.154,13.184,43.139,20.781,13.886,7.543,27.576,15.86,40.689,24.719,13.05,8.817,25.833,18.375,37.991,28.41,12.13,10.01,23.92,20.726,35.045,31.851s21.841,22.916,31.851,35.045c10.035,12.16,19.593,24.942,28.41,37.991,8.859,13.112,17.175,26.8,24.719,40.689,7.6,13.985,14.589,28.5,20.781,43.139,6.25,14.775,11.833,30.03,16.6,45.341,4.815,15.482,8.907,31.394,12.161,47.294a494.782,494.782,0,0,1,7.478,49,500.9,500.9,0,0,1,0,100.915,494.779,494.779,0,0,1-7.478,49c-3.254,15.9-7.345,31.813-12.161,47.294-4.762,15.311-10.346,30.566-16.6,45.341-6.192,14.639-13.184,29.154-20.781,43.139-7.544,13.888-15.861,27.577-24.719,40.689-8.817,13.05-18.375,25.832-28.41,37.991-10.01,12.129-20.726,23.92-31.851,35.046s-22.916,21.841-35.045,31.851c-12.16,10.035-24.942,19.594-37.991,28.409-13.113,8.859-26.8,17.176-40.689,24.719-13.984,7.6-28.5,14.589-43.139,20.781-14.774,6.249-30.029,11.833-45.341,16.6-15.483,4.816-31.395,8.907-47.294,12.161a494.8,494.8,0,0,1-49,7.478A501.42,501.42,0,0,1,631.5,1091Zm0-969a483.181,483.181,0,0,0-48.617,2.455,476.692,476.692,0,0,0-47.213,7.206c-15.32,3.135-30.652,7.077-45.569,11.717-14.752,4.588-29.45,9.968-43.687,15.99-14.105,5.966-28.09,12.7-41.565,20.023-13.38,7.269-26.571,15.282-39.205,23.818A478.128,478.128,0,0,0,237.208,331.644c-8.536,12.635-16.55,25.826-23.818,39.205-7.32,13.476-14.057,27.46-20.023,41.565-6.021,14.236-11.4,28.934-15.99,43.687-4.64,14.918-8.582,30.249-11.717,45.569a476.649,476.649,0,0,0-7.205,47.213,482.616,482.616,0,0,0,0,97.234,476.666,476.666,0,0,0,7.205,47.213c3.135,15.32,7.077,30.652,11.717,45.569,4.588,14.752,9.968,29.45,15.99,43.687,5.966,14.1,12.7,28.089,20.023,41.565,7.268,13.379,15.281,26.57,23.818,39.205A478.133,478.133,0,0,0,365.643,991.793c12.636,8.536,25.826,16.55,39.205,23.818,13.476,7.32,27.46,14.057,41.565,20.023,14.237,6.021,28.935,11.4,43.687,15.99,14.919,4.64,30.25,8.582,45.569,11.717a476.71,476.71,0,0,0,47.213,7.205,482.6,482.6,0,0,0,97.234,0,476.7,476.7,0,0,0,47.213-7.205c15.319-3.135,30.651-7.077,45.569-11.717,14.752-4.589,29.451-9.968,43.687-15.99,14.105-5.966,28.09-12.7,41.565-20.023,13.379-7.268,26.569-15.281,39.205-23.818a478.134,478.134,0,0,0,128.435-128.436c8.536-12.635,16.549-25.825,23.818-39.205,7.32-13.475,14.057-27.46,20.023-41.565,6.022-14.237,11.4-28.935,15.99-43.687,4.64-14.918,8.582-30.25,11.717-45.569a476.684,476.684,0,0,0,7.206-47.213,482.625,482.625,0,0,0,0-97.234,476.668,476.668,0,0,0-7.206-47.213c-3.135-15.319-7.077-30.651-11.717-45.569-4.589-14.753-9.968-29.451-15.99-43.687-5.966-14.106-12.7-28.09-20.023-41.565-7.269-13.38-15.282-26.571-23.818-39.205A478.129,478.129,0,0,0,897.357,203.208c-12.635-8.536-25.825-16.549-39.205-23.818-13.476-7.32-27.46-14.057-41.565-20.023-14.236-6.021-28.935-11.4-43.687-15.99-14.918-4.64-30.25-8.582-45.569-11.717a476.722,476.722,0,0,0-47.213-7.206A483.187,483.187,0,0,0,631.5,122Z" transform="translate(-677 -1516)" fill="#ffaa1e" opacity="0.995"/>
  </g>
</svg>
